PathFileType	4	(X/Y/Z)	Patient4_TMGait_0pt6_01_right_06.trc.trc
DataRate	CameraRate	NumFrames	NumMarkers	Units	OrigDataRate	OrigDataStartFrame	OrigNumFrames
82.840236686391	82.840236686391	6	33	mm	82.840236686391	1	       141
Frame#	Time	Sacral			L.Shoulder			Chest			R.Shoulder			Neck			R.ASIS			L.ASIS			R.Thigh.Superior			R.Thigh.Lateral			R.Thigh.Inferior			R.Patella			L.Thigh.Superior			L.Thigh.Lateral			L.Thigh.Inferior			L.Patella			L.Shank.Superior			L.Shank.Lateral			L.Shank.Inferior			R.Shank.Superior			R.Shank.Lateral			R.Shank.Inferior			R.Heel			R.Midfoot.Superior			R.Midfoot.Lateral			R.Toe			L.Heel			L.Midfoot.Lateral			L.Midfoot.Superior			L.Toe			L.Elbow			L.Wrist			R.Elbow			R.Wrist			
		X1	Y1	Z1	X2	Y2	Z2	X3	Y3	Z3	X4	Y4	Z4	X5	Y5	Z5	X6	Y6	Z6	X7	Y7	Z7	X8	Y8	Z8	X9	Y9	Z9	X10	Y10	Z10	X11	Y11	Z11	X12	Y12	Z12	X13	Y13	Z13	X14	Y14	Z14	X15	Y15	Z15	X16	Y16	Z16	X17	Y17	Z17	X18	Y18	Z18	X19	Y19	Z19	X20	Y20	Z20	X21	Y21	Z21	X22	Y22	Z22	X23	Y23	Z23	X24	Y24	Z24	X25	Y25	Z25	X26	Y26	Z26	X27	Y27	Z27	X28	Y28	Z28	X29	Y29	Z29	X30	Y30	Z30	X31	Y31	Z31	X32	Y32	Z32	X33	Y33	Z33	

1	6.720000000000	619.224039769390	1009.269485626747	443.746425009000	786.917145997835	1449.544180569157	283.124242647855	886.867471272087	1377.366978836192	444.393196175491	793.463293356596	1439.534643394420	617.409925591807	763.729868389985	1502.041983083268	438.891957478293	840.626371257236	952.857350901169	568.401418089335	839.409275667827	968.453788080230	294.802618629286	927.161494839321	784.444736618262	538.501929664828	891.725346395847	662.356384240312	609.576073217348	982.332640200478	624.617418290519	530.123570835124	1003.885531900209	510.361782942751	552.730793143389	876.430282019448	746.946626094695	332.327653691576	781.517674776198	633.615329354210	276.629111724109	856.480949136304	553.422883151376	346.391512794573	850.813999921392	484.620018629749	361.145357534324	823.482439524537	413.982289652819	354.716313080241	733.084786556533	300.486603663185	305.322615962198	774.515638370605	191.311163242451	384.033061899444	926.289343185717	435.039345003209	557.820335501995	803.137054415848	395.702345322025	614.627122123726	789.018829808163	287.198456752038	564.526767564627	588.131910560071	230.680774663637	534.384242677238	754.611159951463	162.218317632713	570.227596856858	643.919408382187	160.709487125945	601.040772848228	815.489753001281	45.125916514105	584.292027926882	639.147920458770	38.196976533413	427.943649274629	714.359531566068	35.487259810184	347.848862250986	798.330244229768	95.601044878441	375.486826017308	926.427642779394	41.411755666914	348.203016398818	796.768856568629	1108.335985415386	135.405993085686	1018.732416068456	977.189390746667	166.620642087937	706.713772881928	1098.624736006011	718.266909643719	739.456817276263	839.085979338978	713.850536909304	
2	6.732071428571	617.748559607016	1009.351629310197	442.763695236691	787.472600987720	1449.415568527051	282.331660118126	886.573735260315	1377.086288559849	444.041985188510	792.638039462232	1439.645858623063	616.604932372973	763.624754881140	1502.022588338719	438.014486902498	839.264044216259	953.350392821253	568.271828052082	838.638170665819	968.218219554948	294.664262917842	927.161500155805	786.638832195739	538.498002642188	893.486914629132	664.252909499524	609.894968443488	984.185500612183	627.580873472881	530.313033892398	1007.565324547711	514.750843601085	553.269387077552	873.617643177653	745.925966368182	332.504281470907	777.394151279345	633.585647101272	276.235414807178	851.035148037672	552.614915292454	346.169039904370	844.590414085608	484.046367132987	360.859192614172	817.109643865971	413.612537576740	354.444888948028	726.314652881804	300.482404026791	305.125489857658	767.162210869801	191.216662552965	383.923002911411	933.669852435022	437.068132273817	558.319092540603	813.075413080844	391.417800521728	614.847400981377	804.943162851466	282.619563179375	564.864923354599	608.091113515754	215.051280721764	533.891333930109	777.215217629681	157.039469550988	571.334240088146	667.038396930939	149.693418146063	601.852521448440	844.270084686516	44.360931136044	587.653970948305	631.570472872267	38.292264453498	427.865304172485	706.710856491056	35.506039385021	347.845646342370	790.713615724452	95.580339097390	375.426583364024	918.784730215507	41.266247546166	348.136031609667	801.052355453323	1108.074486783218	135.706984419445	1027.442031864175	987.961362024448	168.802699233680	701.197302460027	1100.156658732657	716.553611345451	726.597965573565	840.085075487082	709.698032529184	
3	6.744142857143	616.303749615840	1009.421672791748	441.802570870552	788.018745116429	1449.261067593695	281.562800995186	886.289950082160	1376.788716663031	443.706984373519	791.836501901696	1439.744706402137	615.824779574989	763.521205576252	1501.984084170651	437.160381777235	837.916330003269	953.802024814559	568.162938979933	837.870033888398	967.947900325122	294.544093242263	927.089805635340	788.707617407020	538.506685533702	895.053032884959	666.008040380670	610.188503806807	985.836467505959	630.350498393682	530.508468871101	1010.983108432255	518.986724881534	553.797372379865	870.828777980876	744.904821054141	332.682491486020	773.305246294088	633.549252006029	275.850911608882	845.629393253682	551.808881024572	345.956937147667	838.421848920823	483.478395698384	360.581458109767	810.799010477921	413.244447164271	354.181049626990	719.613287824847	300.471282802696	304.937750744721	759.892604807981	191.116324918703	383.822664907220	940.836001834308	438.979409097410	558.818560123233	822.931432420023	387.005255800790	615.134385927444	820.813004721471	277.980362967470	565.270551400034	628.197706604008	199.330571197380	533.541546350664	799.806162065094	151.882245916716	572.531567606292	690.254180342802	138.671473654191	602.804057070961	873.005385641916	43.756946848642	591.088329534208	624.072027759359	38.385320191255	427.788079046842	699.142851278469	35.524607942790	347.844743667855	783.176454687839	95.557958670433	375.373408149418	911.222055639714	41.125111864484	348.072255021736	805.292656742641	1107.793978348343	136.033683701939	1035.927014846581	998.514985492574	170.978937828427	695.719037841870	1101.693213404537	714.861215481506	714.054675077810	841.132122463762	705.661171974243	
4	6.756214285714	614.927319990727	1009.458375320651	440.889585484295	788.552127424475	1449.049712784247	280.843009702971	886.027239424966	1376.451652755071	443.407935747875	791.081244685967	1439.813723381773	615.095451216788	763.421292914101	1501.901925764294	436.354441334881	836.604366213828	954.168242181348	568.096786274686	837.113985141306	967.622500023825	294.428419565382	926.846773676708	790.481556465435	538.556359164710	896.181724091137	667.464082107915	610.461926735738	987.023622978465	632.696584129750	530.727907029132	1013.820881786743	522.902026718251	554.297415395475	868.072388884180	743.875118394092	332.865354782739	769.260945584448	633.498224448285	275.485696575973	840.276096861991	551.002818819129	345.762501531101	832.329478898070	482.915466530885	360.316347722296	804.572161132578	412.877610245364	353.928714964326	712.999457047197	300.450649452248	304.765201553057	752.736034400443	191.005431612562	383.736861142224	947.548650424261	440.674866085242	559.325414586477	832.661811504516	382.363307027347	615.560237859637	836.633989005800	273.292813146084	565.801217980406	648.740035329590	183.510488838735	533.465624578696	822.485770130432	146.854774469056	573.871234335332	713.807134859703	127.717547850150	603.996562939425	901.760093320276	43.579517524592	594.592908837643	616.672703800662	38.474840525692	427.713591594909	691.677569870098	35.541891331633	347.847963035169	775.739920168460	95.531778195108	375.331271118677	903.761082588884	40.991037331103	348.014571809532	809.458452418800	1107.469585356865	136.419475929926	1043.989335650376	1008.632810763520	173.161703161055	690.333035784742	1103.223096554702	713.212544345515	702.142403300669	842.247933671172	701.842164735373	
5	6.768285714286	613.651821240850	1009.443130983087	440.047267816712	789.072348787525	1448.755776658615	280.193091291911	885.795376827956	1376.056201859995	443.162023043843	790.389417801723	1439.837494056223	614.437782778243	763.327403230625	1501.755140093158	435.616891128479	835.349692421986	954.412840042911	568.091968809223	836.379252913305	967.223012799362	294.319854378796	926.340887578976	791.804116509356	538.674075356206	896.652403866374	668.483536315321	610.728699373334	987.506572472114	634.415268920824	530.990631824874	1015.798164040512	526.352451381144	554.749186575648	865.349443672485	742.826774912697	333.055137052427	765.258488374266	633.426140229493	275.148194277878	834.974654476386	550.193944851140	345.589100100762	826.316947460922	482.354723832403	360.064967675705	798.429815540518	412.511176560408	353.689731110219	706.469010564707	300.420072667207	304.611326331317	745.695030866257	190.881869972245	383.667166742740	953.604377087344	442.083585376129	559.843454213088	842.254120926499	377.425353238242	616.189413065368	852.436279885407	268.601498747286	566.497793296958	670.013232614124	167.625734295036	533.773023274366	845.382463057558	142.093927331745	575.378355220092	737.956320841964	116.936308234640	605.498620282564	930.628820692639	44.106957378506	598.128837754862	609.366210663172	38.559046076069	427.645234502703	684.310844365388	35.556821161521	347.857001541563	768.399613824838	95.499846679471	375.302694417857	896.397032513455	40.865312168046	347.965066763964	813.528674934000	1107.081002223337	136.893051492675	1051.481605119630	1018.136958777924	175.368323618895	685.090769091401	1104.730404641152	711.623997155836	691.113827336984	843.437173572340	698.320226240764	
6	6.780357142857	612.503940738747	1009.360875941816	439.294023396431	789.581271677683	1448.361681105564	279.628599301917	885.602144250736	1375.589447311868	442.982792132619	789.772281307977	1439.803563637434	613.866614686904	763.242341054417	1501.528355335727	434.962755624107	834.174842484642	954.510634986542	568.161796909859	835.676481725108	966.734839278565	294.236714596232	925.499035620364	792.544306962669	538.883770975362	896.288846157212	668.962441596272	611.011338862730	987.090778845025	635.347227967170	531.315869603076	1016.697153965890	529.225836595042	555.131170241687	862.657948607299	741.750467518958	333.252880999655	761.289691244106	633.328763794405	274.845150909582	829.720808795795	549.380257292709	345.436351725037	820.380419467844	481.791944895912	359.825505265083	792.361955972595	412.144447644764	353.463922672291	700.005302754209	300.381866760336	304.476933736948	738.755543657316	190.746315975836	383.611394544351	958.844503380833	443.168407987010	560.372952967155	851.707678303620	372.179410864885	617.068663633420	868.239122368074	263.992929059012	567.376955529013	692.244009675632	151.789994023974	534.534357395645	868.592048757118	137.762638524941	577.041319521335	762.902323008276	106.478189769901	607.330160490132	959.667685789674	45.598779199317	601.612766697057	602.131353847557	38.636296531358	427.587329815829	677.023334822266	35.568494502963	347.873033299034	761.136684215978	95.460856640399	375.288075336235	889.110047980254	40.747898429199	347.924789252873	817.486772741841	1106.614497281406	137.475139714040	1058.309699254193	1026.888891885175	177.615871338357	680.047991716366	1106.191856658135	710.108189894438	681.155269709488	844.683019810093	695.149220578404	
